<!--<svg xmlns="http://www.w3.org/2000/svg" data-name="Layer 1" width="909" height="453" viewBox="0 0 909 453" xmlns:xlink="http://www.w3.org/1999/xlink"><circle cx="248.18685" cy="325.81866" r="44.68221" fill="#e4e4e4"/><path d="M360.695,519.47445a44.68569,44.68569,0,0,0,74.45376,47.29034A44.68605,44.68605,0,1,1,360.695,519.47445Z" transform="translate(-145.5 -223.5)" opacity="0.2" style="isolation:isolate"/><polygon points="248.31 325.819 248.432 325.819 250.642 452.5 245.977 452.5 248.31 325.819" fill="#3f3d56"/><circle cx="157.78162" cy="197.08744" r="90.08744" fill="#e4e4e4"/><path d="M236.764,360.4161A90.09446,90.09446,0,0,0,386.87626,455.762,90.0952,90.0952,0,1,1,236.764,360.4161Z" transform="translate(-145.5 -223.5)" opacity="0.2" style="isolation:isolate"/><polygon points="158.029 197.087 158.277 197.087 162.732 452.5 153.327 452.5 158.029 197.087" fill="#3f3d56"/><rect x="338.809" y="320.29982" width="412.92155" height="122.40757" fill="#f0f0f0"/><rect x="521.19629" y="345.59739" width="48.14698" height="97.11001" fill="#cacaca"/><rect x="362.88249" y="175.85888" width="364.77457" height="112.61497" fill="#f0f0f0"/><path d="M910.13873,406.29531H471.40082a3.67218,3.67218,0,0,1-2.54478-6.31961l119.90743-115.256V234.51668a3.67637,3.67637,0,0,1,3.67222-3.67223h23.66547a3.67624,3.67624,0,0,1,3.67222,3.67223v20.39648l9.05685-8.7056a81.37343,81.37343,0,0,1,110.80037-1.84249L912.59406,399.892a3.67254,3.67254,0,0,1-2.45533,6.40329Z" transform="translate(-145.5 -223.5)" fill="#cacaca"/><path d="M459.17643,204.42065h0a23.25742,23.25742,0,0,1,23.25742,23.25742v31.418a0,0,0,0,1,0,0H435.919a0,0,0,0,1,0,0v-31.418A23.25742,23.25742,0,0,1,459.17643,204.42065Z" fill="#fff"/><path d="M545.26975,204.82867h0a23.25742,23.25742,0,0,1,23.25742,23.25742v31.418a0,0,0,0,1,0,0H522.01234a0,0,0,0,1,0,0v-31.418A23.25742,23.25742,0,0,1,545.26975,204.82867Z" fill="#fff"/><path d="M631.36308,205.2367h0a23.25742,23.25742,0,0,1,23.25742,23.25742v31.418a0,0,0,0,1,0,0H608.10567a0,0,0,0,1,0,0v-31.418A23.25742,23.25742,0,0,1,631.36308,205.2367Z" fill="#fff"/><path d="M665.6372,344.37331h0a23.25742,23.25742,0,0,1,23.25742,23.25742v31.418a0,0,0,0,1,0,0H642.37979a0,0,0,0,1,0,0v-31.418A23.25742,23.25742,0,0,1,665.6372,344.37331Z" fill="#fff"/><path d="M435.511,344.37331h0a23.25742,23.25742,0,0,1,23.25742,23.25742v31.418a0,0,0,0,1,0,0H412.25355a0,0,0,0,1,0,0v-31.418A23.25742,23.25742,0,0,1,435.511,344.37331Z" fill="#fff"/><path d="M957.55673,545.71109,880.09728,511.437a3.26366,3.26366,0,0,0-1.32071-.27917H509.61772a3.26264,3.26264,0,0,0-1.22925.24027l-84.31459,34.27412a3.26423,3.26423,0,0,0,1.22925,6.28813H447.1787v112.615h-2.44815V676H936.809V664.57529h-4.08025v-112.615H956.236A3.26418,3.26418,0,0,0,957.55673,545.71109Zm-31.35638,118.8642H453.70711v-112.615H926.20035Z" transform="translate(-145.5 -223.5)" fill="#cacaca"/><rect x="428.57456" y="254.60775" width="59.57169" height="9.79261" fill="#cacaca"/><rect x="515.89196" y="254.60775" width="59.57169" height="9.79261" fill="#cacaca"/><rect x="603.20936" y="254.60775" width="59.57169" height="9.79261" fill="#cacaca"/><rect x="635.85138" y="395.78449" width="59.57169" height="9.79261" fill="#cacaca"/><rect x="404.90909" y="395.78449" width="59.57169" height="9.79261" fill="#cacaca"/><path d="M1053.5,676.5h-907a1,1,0,0,1,0-2h907a1,1,0,0,1,0,2Z" transform="translate(-145.5 -223.5)" fill="#3f3d56"/><path d="M825.36648,397.67993c0,.64014-.01,1.29-.02,1.93006-.01.77-.03,1.53-.06006,2.29992-.02979.67005-.06006,1.33008-.09986,1.99-.12011,2.21009-.31005,4.41016-.57006,6.62012-.06006.55994-.12989,1.11-.21,1.66992-.06006.43006-.12012.87012-.18995,1.31006-.07006.49-.14013.98-.22021,1.47q-.23986,1.56006-.54,3.12c-.09985.52-.19971,1.04-.30981,1.55993-.21,1.03-.44019,2.07007-.67994,3.1001-.02.08-.04.16992-.06005.25-.12012.51-.24,1.01-.37012,1.52-.04.1499-.06983.29-.11987.43994-.09009.38-.19019.76-.29,1.14-.1399.53-.28,1.04992-.42994,1.57995-.24023.82007-.48,1.63013-.73,2.45007a2.58139,2.58139,0,0,0-.08007.26c-.48,1.54993-.99,3.08-1.55,4.6-.29.8-.59986,1.61-.90992,2.40991-.31.8-.63012,1.6001-.96,2.39014-.32006.77-.65014,1.53992-.98,2.29993-.08007.18-.16015.36-.25.54-.35009.78992-.7102,1.55994-1.08007,2.33-.01.01-.01.03-.02.04-.29.62-.6001,1.24-.91016,1.85a.07467.07467,0,0,1-.02.04992c-.2998.6001-.60986,1.20008-.92993,1.79l-.51.97-.06006.11011c-.63989,1.18994-1.2998,2.37-2,3.54-.1499.26-.2998.5199-.44971.7699-.15014.26-.31006.52-.47021.77q-.14979.27007-.33008.54c-.21.34-.41992.69-.63989,1.02991-.04.07007-.09009.14014-.12989.21008-.38012.59-.76,1.17005-1.14013,1.76-.47.71-.95,1.41-1.43994,2.11l-10.86011,17.38-.47-.39-.12988-.12h-.01l-.43018-.36-1.17993-1c-.35986.35-.71.7-1.07007,1.04-.13989.13989-.28979.27-.42993.40991-.10986.1001-.21.2-.32007.3a104.718,104.718,0,0,1-69.98,29.75h-.02979a114.29827,114.29827,0,0,1-57.03-13.46c-.39014-.20007-.77-.40015-1.15015-.63013-2.27979-1.24-4.50977-2.54992-6.7-3.95-.01-.01-.02-.01-.03-.02q-3.81006-2.70008-7.43994-5.76a109.92718,109.92718,0,0,1-38.92993-89.79c.03-.67.07006-1.32995.11987-2q.24023-3.63.74-7.23c.09009-.67.19018-1.34.29-2h213.78q.62988,4.59.87011,9.23C825.31643,393.83,825.36648,395.75,825.36648,397.67993Z" transform="translate(-145.5 -223.5)" fill="#f0f0f0"/><path d="M824.34646,382.67a108.09184,108.09184,0,0,0-213.78,0c-.09986.66-.19995,1.33-.29,2q-.49476,3.6-.74,7.23H825.21657Q824.97635,387.265,824.34646,382.67Z" transform="translate(-145.5 -223.5)" fill="#fa6671"/><path d="M724.45886,494.04669H662.52124V444.50025c1.14284-22.64294,20.49578-24.47138,38.68036-23.25619a23.25555,23.25555,0,0,1,23.25726,23.25619Z" transform="translate(-145.5 -223.5)" fill="#fa6671"/><path d="M662.51638,458.82007V458.83c0,.01.01.01.02.01ZM637.60647,382.67c-.04.25-.09009.5-.13013.75.04-.25.09009-.5.14014-.75Zm-1.24,9.23c-.03.38-.06006.76-.08008,1.14q.03-.57.09009-1.14a1.47492,1.47492,0,0,1,.01-.21C636.37649,391.76,636.37649,391.83,636.36648,391.9Zm26.1499,66.93c0,.01.01.01.02.01l-.02-.0199Zm-24.90991-76.16c-.04.25-.09009.5-.13013.75.04-.25.09009-.5.14014-.75Zm-1.32007,10.37q.03-.57.09009-1.14a1.47492,1.47492,0,0,1,.01-.21c-.01.07-.01.14-.02.21C636.33645,392.28,636.30642,392.66,636.2864,393.04ZM945.22634,577a6.77183,6.77183,0,0,0-.61987-.58008l-.01-.01-49.52-41.78991-1.28-1.08-4.86988-4.11011-1.22021-1.03L880.76638,522.54l-1.8999-1.6001L874.93654,517.62l-2.01-1.70008-18.96-15.99L843.09646,490.76l-1.46-1.23-32.03-27.03c.49-.7.97-1.4,1.43994-2.11.38012-.59.76-1.17,1.14013-1.76.0398-.06994.08985-.14.12989-.21008.22-.34.42993-.68994.63989-1.02991q.18018-.27007.33008-.54c.16015-.25.32007-.51.47021-.77.14991-.25.29981-.50989.44971-.7699.7002-1.17005,1.36011-2.3501,2-3.54l.06006-.11011.51-.97c.32007-.59.63013-1.18994.92993-1.79a.07467.07467,0,0,0,.02-.04992c.31006-.61.62012-1.23.91016-1.85.01-.01.01-.03.02-.04.36987-.77.73-1.54,1.08007-2.33.08985-.18.16993-.36.25-.54.32984-.76.65992-1.52991.98-2.29993.32984-.79.64991-1.59009.96-2.39014.31006-.79992.61988-1.60986.90992-2.40991q.82507-2.295,1.55-4.6a2.58139,2.58139,0,0,1,.08007-.26c.25-.81994.48975-1.63.73-2.45007.14991-.53.29-1.04993.42994-1.57995.09985-.38.2-.76.29-1.14.05-.1499.07983-.29.11987-.43994.13013-.51.25-1.01.37012-1.52.02-.08008.04-.17.06005-.25.23975-1.03.47-2.07007.67994-3.1001.1101-.5199.21-1.03991.30981-1.55993.19019-1.03992.38013-2.08.54-3.12.08008-.49.15015-.98.22021-1.47.06983-.43994.12989-.88.18995-1.31006.08007-.55994.1499-1.11.21-1.66992.26-2.21.44995-4.41.57006-6.62012.0398-.65991.07007-1.31994.09986-1.99.03-.7699.05005-1.52991.06006-2.29992.01-.64.02-1.28992.02-1.93006,0-1.92993-.05005-3.85-.14991-5.78q-.24023-4.63494-.87011-9.23a110.05211,110.05211,0,0,0-217.78-2c-.09986.66-.19995,1.33-.29,2q-.49476,3.6-.74,7.23c-.04981.67005-.08985,1.33-.11987,2a109.92718,109.92718,0,0,0,38.92993,89.79q3.62988,3.06006,7.43994,5.76c.01.01.02.01.03.02.8501.6001,1.7,1.18994,2.56006,1.77,1.36987.9,2.75,1.78,4.13989,2.62.11011.05993.22021.13.33008.19006,1.2.72,2.41015,1.40991,3.62011,2.07995h.00977a108.15267,108.15267,0,0,0,13.99023,6.44007,110.38385,110.38385,0,0,0,44.23,6.93994h.02979a109.76088,109.76088,0,0,0,49.91016-14.77c2.21-1.28,4.38989-2.65,6.52-4.11.53-.36,1.06982-.7301,1.58984-1.1.64014-.45007,1.28-.92,1.92017-1.39.01,0,.01-.01.02-.01a1.42983,1.42983,0,0,1,.14991-.11c.42993-.33008.86987-.66,1.29-.98.1101-.08008.22-.16.32983-.25a.48138.48138,0,0,0,.08008-.07007c.25-.17993.49-.38.74-.57007.25-.18994.49-.38989.74-.58984a.9391.9391,0,0,0,.12012-.09009c.28-.23.56005-.45.83984-.67993.29-.23.57007-.47.84009-.70007.28-.23.55005-.46.83008-.7.24-.20007.49-.41.73-.63.07983-.06006.1499-.13.23-.2a.71346.71346,0,0,1,.09985-.08008c.33008-.28.65015-.57007.97021-.86.08008-.07.14991-.14.23-.21009.49-.43994.98-.87988,1.46-1.33984.10986-.1001.23-.21008.33984-.31006.11011-.1001.21021-.2.32007-.3.14014-.13989.29-.27.42993-.40991.36011-.34009.71021-.69006,1.07007-1.04l1.17993,1,.43018.36h.01l.12988.12.47.39,6.98,5.9.15015.12988.11987.09009.79.66992,1.58008,1.34009,1.58007,1.33.23.19006,7.34986,6.2,1.02.86,7.09009,5.9801,36.7,30.97,1.28,1.08,50.23,42.38,12.87988,10.87,4.79,4.03991a10.13315,10.13315,0,0,0,14.29-1.19995,9.84215,9.84215,0,0,0,1.68994-2.84A10.09075,10.09075,0,0,0,945.22634,577ZM655.55642,345.19a82.447,82.447,0,0,1,143.95019,37.48c.12989.67.25,1.33.35987,2,.40991,2.39.71,4.81.89013,7.23.04981.67005.09986,1.33.12989,2,.08984,1.5.12988,3.01.12988,4.51a82.07827,82.07827,0,0,1-4.46,26.74v.01a82.00716,82.00716,0,0,1-14.97,26.38013c-.1399.15991-.28.33-.42993.49-1.32007,1.55994-2.71,3.05994-4.14014,4.49-.00977.01-.02.03-.02979.04-.49023.49-.99023.99-1.49023,1.45-1.02.99-2.05982,1.92993-3.11987,2.83q-2.38514,2.085-4.8899,3.91c-.56006.40991-1.12011.81006-1.69018,1.21-.55982.4-1.12988.78-1.7,1.16-1.14014.76-2.3,1.49-3.47,2.18-.58008.34985-1.17994.68994-1.77,1.02-.59009.33984-1.18994.65991-1.79.97-.59986.32-1.19995.62988-1.80982.92993-1.2102.61-2.43017,1.17993-3.67016,1.71q-.92982.42-1.86011.78c-.38989.16-.77.32007-1.15991.46a3.761,3.761,0,0,1-.47.18006q-.31494.13494-.62989.24a1.81589,1.81589,0,0,1-.21.07995c-.43017.17005-.85009.32007-1.29.47009-.63012.23-1.26025.44-1.90014.64-.6399.21-1.27.40991-1.90991.59-.64014.20007-1.29.38-1.93018.54992-.6499.18006-1.2898.3501-1.93994.5-.68994.18006-1.37988.34009-2.08008.49-.60986.14014-1.21.26-1.81982.37012-.57007.11987-1.14991.22-1.72.32-.8.14-1.6001.27-2.40992.38-.44018.07007-.87011.13-1.31006.16992-.18994.03-.37011.05-.55.07007-.56006.08008-1.12012.14-1.67017.18994-.1499.01-.2898.03-.42993.04-.60987.06006-1.23.11011-1.84009.16-1.30981.09-2.60986.15-3.91992.18-.65991.01-1.33008.02-1.99.02s-1.32007-.01-1.98-.03c0,0,0,.01-.01,0-.01.01-.01.01-.02,0a.01386.01386,0,0,1-.02,0,.16975.16975,0,0,1-.09985,0c-.47,0-.94019-.02-1.40015-.05-.33985-.01-.68994-.02-1.04-.05q-.7046-.03-1.40991-.09c-.1499,0-.3-.0199-.44995-.02991a1.48637,1.48637,0,0,1-.21-.02c-.48-.04-.97-.08008-1.4502-.13013-.23975-.0199-.48975-.03991-.73-.06994-.73-.08-1.46-.17005-2.17993-.2699-.82007-.1001-1.63989-.22009-2.45-.37012-.37989-.05-.75-.12-1.12012-.18994q-.73463-.12012-1.46973-.27c-.51025-.1-1.02-.2-1.53027-.32007-.40991-.09-.82983-.17993-1.23975-.27991-.20019-.04-.40014-.09-.59008-.14-1.05005-.25-2.09009-.52-3.12012-.82007-.6499-.17993-1.3-.36987-1.93994-.56994-.88013-.27-1.75-.55994-2.61988-.87-.34008-.11-.67016-.23-1.01025-.36-.33984-.11-.66992-.24-1.00977-.37-.31005-.11011-.62011-.23-.92016-.3501-.5-.18994-.99-.38989-1.48-.58984-1.01-.41016-2-.84009-2.99-1.3-.56006-.27-1.11988-.53-1.66992-.8q-3.25489-1.57507-6.41016-3.5c-.52-.31006-1.0398-.64-1.55981-.97-.65015-.4-1.28-.82007-1.90992-1.24-.35009-.24-.69018-.47-1.03027-.71-.62988-.44006-1.25-.89014-1.85986-1.34009-.32007-.23-.64014-.47-.95-.71-1.11011-.84009-2.2-1.72-3.27-2.62-.51-.43-1.02-.87-1.52-1.31994-.21-.18006-.42017-.37012-.63013-.56006-.23975-.22-.48-.42993-.71-.66l-.02-.0199c-.34985-.31006-.7-.64014-1.04-.97009-.52979-.5-1.04981-1.01-1.54981-1.52991-.52-.51-1.02-1.04-1.51-1.56006-.5-.52-.98-1.05-1.45-1.59009q-.72-.79486-1.41015-1.61987c-.45-.52-.88989-1.06006-1.31006-1.59009q-1.53-1.89-2.91992-3.85c-.42993-.6-.83985-1.20008-1.24-1.80994-.42993-.62012-.84009-1.25-1.23-1.88013-.40992-.62988-.8-1.27-1.17994-1.91992a.20915.20915,0,0,0-.04-.06006c-.75-1.27-1.47-2.54993-2.14014-3.85q-1.03491-1.97992-1.94995-4c-.30982-.67005-.60987-1.35-.88989-2.02991-.58008-1.37012-1.12012-2.74-1.62012-4.13013-.25-.66992-.48-1.34-.71-2.02a.49523.49523,0,0,0-.04-.12988c-.46-1.38013-.87988-2.77-1.25-4.17-.01-.02-.01-.03992-.02-.05994-.18994-.69006-.36987-1.38013-.52979-2.08008-.16015-.61-.3-1.22-.43017-1.84-.1499-.69006-.29981-1.38-.42993-2.07995-.07007-.36011-.1399-.72009-.2-1.08008-.06-.3-.1101-.61-.16015-.90991-.04981-.3-.09985-.61011-.1499-.92005q-.15015-.915-.27-1.82995c-.1001-.72009-.17993-1.44006-.26-2.17005-.09009-.87-.16992-1.74011-.24-2.62-.05-.59009-.08008-1.19006-.10987-1.79-.03027-.55-.06006-1.1-.07006-1.65a.13853.13853,0,0,1,0-.09.01386.01386,0,0,1,0-.02c-.01-.01-.01-.01,0-.02a.01386.01386,0,0,1,0-.02c-.01-.22-.02-.43994-.02-.65991q-.03-.975-.03-1.95c0-.59009.01-1.17011.02-1.76007q.03-1.23.08984-2.46c0-.18.02-.35.03027-.53.00977-.18.01978-.35.02979-.53q.03-.57.09009-1.14a1.47492,1.47492,0,0,1,.01-.21c.03-.43.06982-.86.10986-1.29.08008-.86.18017-1.73.29-2.59.06006-.43.11011-.86.18017-1.29.04-.3.08985-.61.1399-.92q.06006-.465.15014-.93c.06983-.41.1399-.83.21973-1.25.04-.25.09009-.5.14014-.75q.28491-1.5.62988-3c.23-1.01.49023-2.01.77-3.01.27-1.01.57007-2.02.89014-3.03.1499-.51.31005-1.01.49-1.51.32983-1.01.67993-2.01,1.07006-3,.17994-.49.36988-.99.57984-1.48.40014-.99.82007-1.98,1.25-2.95.22-.49.44018-.98.67993-1.47.45019-.97.92017-1.94,1.43018-2.89.49-.97,1.02-1.92,1.56005-2.86s1.09986-1.88,1.68995-2.81c.27-.46.56982-.93.87988-1.38.6001-.92,1.23-1.84,1.87012-2.74C652.69655,348.72,654.08645,346.93,655.55642,345.19ZM636.36648,391.9c-.03.38-.06006.76-.08008,1.14q.03-.57.09009-1.14a1.47492,1.47492,0,0,1,.01-.21C636.37649,391.76,636.37649,391.83,636.36648,391.9Zm1.24-9.23c-.04.25-.09009.5-.13013.75.04-.25.09009-.5.14014-.75Zm24.90991,76.15009V458.83c0,.01.01.01.02.01Z" transform="translate(-145.5 -223.5)" fill="#3f3d56"/><path d="M665.39757,461.37905a82.45487,82.45487,0,0,1-13.99113-110.84027q-2.36469,2.38145-4.572,4.98814A82.45039,82.45039,0,1,0,772.86388,461.87q2.20231-2.61,4.14788-5.346A82.45472,82.45472,0,0,1,665.39757,461.37905Z" transform="translate(-145.5 -223.5)" opacity="0.3" style="isolation:isolate"/></svg>-->
<svg width="909" height="453" viewBox="0 0 909 453" fill="none" xmlns="http://www.w3.org/2000/svg">
<path d="M248.187 370.501C272.864 370.501 292.869 350.496 292.869 325.819C292.869 301.141 272.864 281.136 248.187 281.136C223.51 281.136 203.505 301.141 203.505 325.819C203.505 350.496 223.51 370.501 248.187 370.501Z" fill="#E4E4E4"/>
<path opacity="0.2" d="M215.195 295.974C211.027 305.724 210.462 316.637 213.6 326.765C216.738 336.893 223.375 345.575 232.325 351.26C241.275 356.945 251.955 359.262 262.456 357.797C272.957 356.332 282.596 351.182 289.649 343.265C287.103 349.221 283.292 354.553 278.481 358.89C273.67 363.228 267.973 366.468 261.786 368.385C255.598 370.302 249.068 370.852 242.647 369.995C236.226 369.137 230.068 366.895 224.6 363.422C219.132 359.949 214.485 355.328 210.98 349.881C207.475 344.433 205.196 338.289 204.301 331.873C203.407 325.457 203.917 318.924 205.798 312.725C207.68 306.527 210.886 300.811 215.195 295.974Z" fill="black"/>
<path d="M248.31 325.819H248.432L250.642 452.5H245.977L248.31 325.819Z" fill="#3F3D56"/>
<path d="M157.782 287.175C207.536 287.175 247.869 246.841 247.869 197.087C247.869 147.334 207.536 107 157.782 107C108.028 107 67.6942 147.334 67.6942 197.087C67.6942 246.841 108.028 287.175 157.782 287.175Z" fill="#E4E4E4"/>
<path opacity="0.2" d="M91.264 136.916C82.8609 156.573 81.721 178.576 88.0479 198.996C94.3749 219.416 107.756 236.92 125.801 248.382C143.846 259.843 165.379 264.515 186.551 261.562C207.724 258.609 227.156 248.224 241.376 232.262C236.243 244.271 228.56 255.021 218.86 263.766C209.16 272.512 197.674 279.043 185.199 282.909C172.724 286.775 159.558 287.882 146.612 286.154C133.666 284.426 121.251 279.904 110.227 272.902C99.2024 265.9 89.8321 256.584 82.7652 245.601C75.6983 234.618 71.1038 222.229 69.3 209.294C67.4962 196.359 68.5263 183.186 72.3189 170.689C76.1114 158.191 82.5758 146.667 91.264 136.916Z" fill="black"/>
<path d="M158.029 197.087H158.277L162.732 452.5H153.327L158.029 197.087Z" fill="#3F3D56"/>
<path d="M751.731 320.3H338.809V442.707H751.731V320.3Z" fill="#F0F0F0"/>
<path d="M569.343 345.597H521.196V442.707H569.343V345.597Z" fill="#CACACA"/>
<path d="M727.657 175.859H362.882V288.474H727.657V175.859Z" fill="#F0F0F0"/>
<path d="M764.639 182.795H325.901C325.168 182.795 324.453 182.576 323.846 182.166C323.239 181.756 322.768 181.174 322.494 180.495C322.221 179.815 322.157 179.07 322.31 178.353C322.464 177.637 322.828 176.983 323.356 176.476L443.263 61.2197V11.0167C443.265 10.0431 443.652 9.10967 444.34 8.42123C445.029 7.73279 445.962 7.34555 446.936 7.34445H470.601C471.575 7.34552 472.508 7.73276 473.197 8.4212C473.885 9.10965 474.272 10.0431 474.273 11.0167V31.4132L483.33 22.7076C498.151 8.46167 517.814 0.35304 538.368 0.011245C558.923 -0.33055 578.845 7.11981 594.131 20.8651L767.094 176.392C767.646 176.889 768.035 177.541 768.209 178.264C768.383 178.986 768.333 179.744 768.067 180.438C767.801 181.131 767.331 181.728 766.719 182.149C766.107 182.57 765.382 182.795 764.639 182.795Z" fill="#CACACA"/>
<path d="M459.176 204.421C462.231 204.421 465.255 205.022 468.077 206.191C470.898 207.36 473.462 209.073 475.622 211.233C477.782 213.392 479.495 215.956 480.663 218.778C481.832 221.6 482.434 224.624 482.434 227.678V259.096H435.919V227.678C435.919 224.624 436.521 221.6 437.689 218.778C438.858 215.956 440.571 213.392 442.731 211.233C444.891 209.073 447.454 207.36 450.276 206.191C453.098 205.022 456.122 204.421 459.176 204.421Z" fill="white"/>
<path d="M545.27 204.829C551.438 204.829 557.354 207.279 561.715 211.641C566.077 216.002 568.527 221.918 568.527 228.086V259.504H522.012V228.086C522.012 221.918 524.463 216.002 528.824 211.641C533.186 207.279 539.102 204.829 545.27 204.829Z" fill="white"/>
<path d="M631.363 205.237C637.531 205.237 643.447 207.687 647.809 212.049C652.17 216.41 654.62 222.326 654.62 228.494V259.912H608.106V228.494C608.106 222.326 610.556 216.41 614.918 212.049C619.279 207.687 625.195 205.237 631.363 205.237Z" fill="white"/>
<path d="M665.637 344.373C671.805 344.373 677.721 346.824 682.083 351.185C686.444 355.547 688.895 361.462 688.895 367.631V399.049H642.38V367.631C642.38 361.462 644.83 355.547 649.192 351.185C653.553 346.824 659.469 344.373 665.637 344.373Z" fill="white"/>
<path d="M435.511 344.373C441.679 344.373 447.595 346.824 451.956 351.185C456.318 355.547 458.768 361.462 458.768 367.631V399.049H412.254V367.631C412.254 364.577 412.855 361.552 414.024 358.73C415.193 355.909 416.906 353.345 419.065 351.185C421.225 349.026 423.789 347.312 426.611 346.144C429.432 344.975 432.457 344.373 435.511 344.373Z" fill="white"/>
<path d="M812.057 322.211L734.597 287.937C734.181 287.753 733.731 287.658 733.277 287.658H364.118C363.696 287.658 363.279 287.739 362.888 287.898L278.574 322.172C277.873 322.457 277.292 322.977 276.932 323.643C276.572 324.309 276.454 325.079 276.6 325.822C276.745 326.565 277.144 327.235 277.728 327.716C278.313 328.197 279.046 328.46 279.803 328.46H301.679V441.075H299.231V452.5H791.309V441.075H787.229V328.46H810.736C811.485 328.46 812.21 328.203 812.792 327.732C813.373 327.26 813.775 326.603 813.93 325.871C814.084 325.139 813.983 324.375 813.642 323.709C813.301 323.043 812.741 322.514 812.057 322.211ZM780.7 441.075H308.207V328.46H780.7V441.075Z" fill="#CACACA"/>
<path d="M488.146 254.608H428.575V264.4H488.146V254.608Z" fill="#CACACA"/>
<path d="M575.464 254.608H515.892V264.4H575.464V254.608Z" fill="#CACACA"/>
<path d="M662.781 254.608H603.209V264.4H662.781V254.608Z" fill="#CACACA"/>
<path d="M695.423 395.784H635.851V405.577H695.423V395.784Z" fill="#CACACA"/>
<path d="M464.481 395.784H404.909V405.577H464.481V395.784Z" fill="#CACACA"/>
<path d="M908 453H1C0.734784 453 0.480429 452.895 0.292892 452.707C0.105356 452.52 0 452.265 0 452C0 451.735 0.105356 451.48 0.292892 451.293C0.480429 451.105 0.734784 451 1 451H908C908.265 451 908.52 451.105 908.707 451.293C908.895 451.48 909 451.735 909 452C909 452.265 908.895 452.52 908.707 452.707C908.52 452.895 908.265 453 908 453Z" fill="#3F3D56"/>
<path d="M679.866 174.18C679.866 174.82 679.856 175.47 679.846 176.11C679.836 176.88 679.816 177.64 679.786 178.41C679.757 179.08 679.726 179.74 679.687 180.4C679.566 182.61 679.377 184.81 679.117 187.02C679.056 187.58 678.987 188.13 678.906 188.69C678.846 189.12 678.786 189.56 678.717 190C678.646 190.49 678.576 190.98 678.496 191.47C678.336 192.51 678.156 193.55 677.956 194.59C677.857 195.11 677.757 195.63 677.647 196.15C677.437 197.18 677.206 198.22 676.967 199.25C676.947 199.33 676.927 199.42 676.907 199.5C676.786 200.01 676.667 200.51 676.536 201.02C676.496 201.17 676.467 201.31 676.417 201.46C676.326 201.84 676.226 202.22 676.127 202.6C675.987 203.13 675.847 203.65 675.697 204.18C675.456 205 675.217 205.81 674.967 206.63C674.935 206.715 674.909 206.802 674.887 206.89C674.407 208.44 673.897 209.97 673.337 211.49C673.047 212.29 672.737 213.1 672.427 213.9C672.117 214.7 671.796 215.5 671.467 216.29C671.147 217.06 670.816 217.83 670.487 218.59C670.407 218.77 670.326 218.95 670.237 219.13C669.887 219.92 669.526 220.69 669.157 221.46C669.147 221.47 669.147 221.49 669.137 221.5C668.847 222.12 668.536 222.74 668.226 223.35C668.226 223.369 668.219 223.386 668.206 223.4C667.907 224 667.597 224.6 667.276 225.19L666.766 226.16L666.706 226.27C666.067 227.46 665.407 228.64 664.706 229.81C664.557 230.07 664.407 230.33 664.257 230.58C664.107 230.84 663.947 231.1 663.786 231.35C663.687 231.53 663.577 231.71 663.456 231.89C663.246 232.23 663.036 232.58 662.817 232.92C662.777 232.99 662.726 233.06 662.687 233.13C662.307 233.72 661.927 234.3 661.547 234.89C661.077 235.6 660.597 236.3 660.107 237L649.246 254.38L648.776 253.99L648.647 253.87H648.637L648.206 253.51L647.026 252.51C646.667 252.86 646.316 253.21 645.956 253.55C645.816 253.69 645.667 253.82 645.526 253.96C645.417 254.06 645.316 254.16 645.206 254.26C626.431 272.595 601.457 283.212 575.226 284.01H575.197C555.34 284.555 535.684 279.916 518.167 270.55C517.776 270.35 517.397 270.15 517.016 269.92C514.737 268.68 512.507 267.37 510.316 265.97C510.306 265.96 510.296 265.96 510.286 265.95C507.746 264.15 505.266 262.23 502.846 260.19C489.864 249.246 479.592 235.444 472.838 219.866C466.084 204.287 463.03 187.356 463.917 170.4C463.947 169.73 463.987 169.07 464.036 168.4C464.197 165.98 464.443 163.57 464.776 161.17C464.867 160.5 464.967 159.83 465.066 159.17H678.846C679.266 162.23 679.556 165.306 679.717 168.4C679.816 170.33 679.866 172.25 679.866 174.18Z" fill="#F0F0F0"/>
<path d="M678.846 159.17C674.998 133.575 662.093 110.211 642.477 93.3254C622.862 76.4393 597.839 67.1522 571.956 67.1522C546.074 67.1522 521.051 76.4393 501.436 93.3254C481.82 110.211 468.915 133.575 465.066 159.17C464.967 159.83 464.867 160.5 464.776 161.17C464.447 163.57 464.2 165.98 464.036 168.4H679.717C679.556 165.31 679.266 162.233 678.846 159.17Z" fill="#0085A1"/>
<path d="M578.959 270.547H517.021V221C518.164 198.357 537.517 196.529 555.702 197.744C558.756 197.744 561.78 198.345 564.602 199.514C567.424 200.682 569.987 202.396 572.147 204.555C574.307 206.715 576.02 209.278 577.189 212.1C578.357 214.922 578.959 217.946 578.959 221V270.547Z" fill="#0085A1"/>
<path d="M517.016 235.32V235.33C517.016 235.34 517.026 235.34 517.036 235.34L517.016 235.32ZM492.106 159.17C492.066 159.42 492.016 159.67 491.976 159.92C492.016 159.67 492.066 159.42 492.116 159.17H492.106ZM490.866 168.4C490.836 168.78 490.806 169.16 490.786 169.54C490.806 169.16 490.836 168.78 490.876 168.4C490.875 168.33 490.878 168.26 490.886 168.19C490.876 168.26 490.876 168.33 490.866 168.4ZM517.016 235.33C517.016 235.34 517.026 235.34 517.036 235.34L517.016 235.32V235.33ZM492.106 159.17C492.066 159.42 492.016 159.67 491.976 159.92C492.016 159.67 492.066 159.42 492.116 159.17H492.106ZM490.786 169.54C490.806 169.16 490.836 168.78 490.876 168.4C490.875 168.33 490.878 168.26 490.886 168.19C490.876 168.26 490.876 168.33 490.866 168.4C490.836 168.78 490.806 169.16 490.786 169.54ZM799.726 353.5C799.532 353.294 799.325 353.1 799.106 352.92L799.096 352.91L749.576 311.12L748.296 310.04L743.427 305.93L742.206 304.9L735.266 299.04L733.366 297.44L729.437 294.12L727.427 292.42L708.467 276.43L697.596 267.26L696.136 266.03L664.106 239C664.596 238.3 665.076 237.6 665.546 236.89C665.927 236.3 666.306 235.72 666.687 235.13C666.726 235.06 666.776 234.99 666.816 234.92C667.036 234.58 667.246 234.23 667.456 233.89C667.576 233.71 667.686 233.53 667.786 233.35C667.947 233.1 668.106 232.84 668.257 232.58C668.407 232.33 668.556 232.07 668.706 231.81C669.406 230.64 670.066 229.46 670.706 228.27L670.766 228.16L671.276 227.19C671.596 226.6 671.906 226 672.206 225.4C672.219 225.386 672.226 225.369 672.226 225.35C672.536 224.74 672.846 224.12 673.136 223.5C673.146 223.49 673.146 223.47 673.156 223.46C673.526 222.69 673.886 221.92 674.237 221.13C674.326 220.95 674.406 220.77 674.487 220.59C674.816 219.83 675.146 219.06 675.467 218.29C675.796 217.5 676.116 216.7 676.427 215.9C676.737 215.1 677.046 214.29 677.336 213.49C677.886 211.96 678.403 210.427 678.886 208.89C678.909 208.802 678.935 208.715 678.966 208.63C679.216 207.81 679.456 207 679.697 206.18C679.846 205.65 679.987 205.13 680.126 204.6C680.226 204.22 680.326 203.84 680.416 203.46C680.466 203.31 680.496 203.17 680.536 203.02C680.666 202.51 680.786 202.01 680.906 201.5C680.926 201.42 680.946 201.33 680.966 201.25C681.206 200.22 681.436 199.18 681.646 198.15C681.757 197.63 681.856 197.11 681.956 196.59C682.146 195.55 682.336 194.51 682.496 193.47C682.576 192.98 682.646 192.49 682.716 192C682.786 191.56 682.846 191.12 682.906 190.69C682.987 190.13 683.056 189.58 683.116 189.02C683.376 186.81 683.566 184.61 683.686 182.4C683.726 181.74 683.757 181.08 683.786 180.41C683.816 179.64 683.836 178.88 683.846 178.11C683.856 177.47 683.866 176.82 683.866 176.18C683.866 174.25 683.816 172.33 683.716 170.4C683.556 167.31 683.266 164.233 682.846 161.17C679.264 134.985 666.377 110.963 646.542 93.4964C626.707 76.0297 601.249 66.2842 574.821 66.0415C548.393 65.7988 522.76 75.075 502.607 92.1746C482.455 109.274 469.129 133.055 465.066 159.17C464.966 159.83 464.866 160.5 464.776 161.17C464.447 163.57 464.2 165.98 464.036 168.4C463.987 169.07 463.947 169.73 463.917 170.4C463.03 187.357 466.084 204.288 472.838 219.866C479.592 235.445 489.864 249.247 502.846 260.19C505.266 262.23 507.746 264.15 510.286 265.95C510.296 265.96 510.306 265.96 510.316 265.97C511.166 266.57 512.016 267.16 512.876 267.74C514.246 268.64 515.626 269.52 517.016 270.36C517.126 270.42 517.237 270.49 517.346 270.55C518.546 271.27 519.757 271.96 520.966 272.63H520.976C525.481 275.106 530.156 277.259 534.966 279.07C549.081 284.38 564.134 286.742 579.197 286.01H579.226C596.807 285.16 613.925 280.094 629.136 271.24C631.346 269.96 633.526 268.59 635.656 267.13C636.186 266.77 636.726 266.4 637.246 266.03C637.886 265.58 638.526 265.11 639.166 264.64C639.176 264.64 639.176 264.63 639.186 264.63C639.234 264.59 639.284 264.553 639.336 264.52C639.766 264.19 640.206 263.86 640.626 263.54C640.737 263.46 640.846 263.38 640.956 263.29C640.985 263.27 641.012 263.246 641.036 263.22C641.286 263.04 641.526 262.84 641.776 262.65C642.026 262.46 642.266 262.26 642.516 262.06C642.559 262.033 642.599 262.003 642.636 261.97C642.916 261.74 643.196 261.52 643.476 261.29C643.766 261.06 644.046 260.82 644.316 260.59C644.596 260.36 644.866 260.13 645.146 259.89C645.386 259.69 645.636 259.48 645.876 259.26C645.956 259.2 646.026 259.13 646.106 259.06C646.137 259.03 646.171 259.004 646.206 258.98C646.536 258.7 646.856 258.41 647.176 258.12C647.257 258.05 647.326 257.98 647.406 257.91C647.896 257.47 648.386 257.03 648.866 256.57C648.976 256.47 649.096 256.36 649.206 256.26C649.316 256.16 649.417 256.06 649.526 255.96C649.667 255.82 649.816 255.69 649.956 255.55C650.316 255.21 650.667 254.86 651.026 254.51L652.206 255.51L652.636 255.87H652.646L652.776 255.99L653.246 256.38L660.226 262.28L660.377 262.41L660.496 262.5L661.286 263.17L662.866 264.51L664.447 265.84L664.677 266.03L672.026 272.23L673.046 273.09L680.136 279.07L716.836 310.04L718.117 311.12L768.346 353.5L781.226 364.37L786.016 368.41C787.033 369.27 788.209 369.922 789.478 370.327C790.747 370.733 792.083 370.884 793.41 370.773C794.737 370.661 796.03 370.289 797.213 369.678C798.396 369.067 799.447 368.228 800.306 367.21C801.026 366.365 801.597 365.405 801.996 364.37C802.723 362.535 802.895 360.527 802.491 358.595C802.088 356.663 801.126 354.891 799.726 353.5ZM510.056 121.69C520.089 109.801 533.28 100.994 548.105 96.284C562.931 91.5744 578.787 91.1552 593.841 95.0747C608.894 98.9943 622.532 107.093 633.179 118.434C643.825 129.776 651.046 143.899 654.007 159.17C654.136 159.84 654.257 160.5 654.366 161.17C654.776 163.56 655.076 165.98 655.257 168.4C655.306 169.07 655.356 169.73 655.386 170.4C655.476 171.9 655.516 173.41 655.516 174.91C655.522 184.009 654.015 193.045 651.056 201.65V201.66C647.75 211.308 642.673 220.254 636.086 228.04C635.946 228.2 635.806 228.37 635.656 228.53C634.336 230.09 632.946 231.59 631.516 233.02C631.507 233.03 631.496 233.05 631.487 233.06C630.996 233.55 630.496 234.05 629.996 234.51C628.976 235.5 627.936 236.44 626.876 237.34C625.286 238.73 623.656 240.033 621.987 241.25C621.426 241.66 620.866 242.06 620.296 242.46C619.737 242.86 619.166 243.24 618.596 243.62C617.456 244.38 616.296 245.11 615.126 245.8C614.546 246.15 613.946 246.49 613.356 246.82C612.766 247.16 612.166 247.48 611.566 247.79C610.966 248.11 610.366 248.42 609.757 248.72C608.546 249.33 607.326 249.9 606.086 250.43C605.466 250.71 604.846 250.97 604.226 251.21C603.836 251.37 603.456 251.53 603.066 251.67C602.914 251.741 602.757 251.801 602.596 251.85C602.386 251.94 602.176 252.02 601.966 252.09C601.898 252.121 601.828 252.148 601.756 252.17C601.326 252.34 600.906 252.49 600.466 252.64C599.836 252.87 599.206 253.08 598.566 253.28C597.926 253.49 597.296 253.69 596.656 253.87C596.016 254.07 595.366 254.25 594.726 254.42C594.076 254.6 593.436 254.77 592.786 254.92C592.096 255.1 591.406 255.26 590.706 255.41C590.096 255.55 589.496 255.67 588.886 255.78C588.316 255.9 587.736 256 587.166 256.1C586.366 256.24 585.566 256.37 584.756 256.48C584.316 256.55 583.886 256.61 583.446 256.65C583.256 256.68 583.076 256.7 582.896 256.72C582.336 256.8 581.776 256.86 581.226 256.91C581.076 256.92 580.936 256.94 580.796 256.95C580.186 257.01 579.566 257.06 578.956 257.11C577.646 257.2 576.346 257.26 575.036 257.29C574.376 257.3 573.706 257.31 573.046 257.31C572.386 257.31 571.726 257.3 571.066 257.28C571.066 257.28 571.066 257.29 571.056 257.28C571.046 257.29 571.046 257.29 571.036 257.28C571.035 257.281 571.033 257.283 571.032 257.283C571.03 257.284 571.028 257.284 571.026 257.284C571.024 257.284 571.023 257.284 571.021 257.283C571.019 257.283 571.018 257.281 571.016 257.28C570.984 257.29 570.949 257.29 570.916 257.28C570.446 257.28 569.976 257.26 569.516 257.23C569.176 257.22 568.826 257.21 568.476 257.18C568.007 257.16 567.537 257.13 567.066 257.09C566.917 257.09 566.766 257.07 566.616 257.06C566.546 257.059 566.476 257.052 566.406 257.04C565.926 257 565.436 256.96 564.956 256.91C564.716 256.89 564.467 256.87 564.226 256.84C563.496 256.76 562.766 256.67 562.046 256.57C561.226 256.47 560.406 256.35 559.596 256.2C559.216 256.15 558.846 256.08 558.476 256.01C557.986 255.93 557.497 255.84 557.006 255.74C556.496 255.64 555.986 255.54 555.476 255.42C555.066 255.33 554.646 255.24 554.236 255.14C554.036 255.1 553.836 255.05 553.646 255C552.596 254.75 551.556 254.48 550.526 254.18C549.876 254 549.226 253.81 548.586 253.61C547.706 253.34 546.836 253.05 545.966 252.74C545.626 252.63 545.296 252.51 544.956 252.38C544.616 252.27 544.286 252.14 543.946 252.01C543.636 251.9 543.326 251.78 543.026 251.66C542.526 251.47 542.036 251.27 541.546 251.07C540.536 250.66 539.546 250.23 538.556 249.77C537.996 249.5 537.436 249.24 536.886 248.97C534.716 247.92 532.58 246.754 530.476 245.47C529.956 245.16 529.436 244.83 528.916 244.5C528.266 244.1 527.636 243.68 527.006 243.26C526.656 243.02 526.316 242.79 525.976 242.55C525.346 242.11 524.726 241.66 524.116 241.21C523.796 240.98 523.476 240.74 523.166 240.5C522.056 239.66 520.966 238.78 519.896 237.88C519.386 237.45 518.876 237.01 518.376 236.56C518.166 236.38 517.956 236.19 517.746 236C517.506 235.78 517.266 235.57 517.036 235.34L517.016 235.32C516.667 235.01 516.316 234.68 515.976 234.35C515.446 233.85 514.926 233.34 514.426 232.82C513.906 232.31 513.406 231.78 512.916 231.26C512.416 230.74 511.936 230.21 511.466 229.67C510.986 229.14 510.516 228.6 510.056 228.05C509.606 227.53 509.166 226.99 508.746 226.46C507.726 225.2 506.753 223.917 505.826 222.61C505.396 222.01 504.986 221.41 504.586 220.8C504.156 220.18 503.746 219.55 503.356 218.92C502.946 218.29 502.556 217.65 502.176 217C502.167 216.978 502.153 216.958 502.136 216.94C501.386 215.67 500.666 214.39 499.996 213.09C499.306 211.77 498.656 210.437 498.046 209.09C497.736 208.42 497.436 207.74 497.156 207.06C496.576 205.69 496.036 204.32 495.536 202.93C495.286 202.26 495.056 201.59 494.826 200.91C494.819 200.865 494.805 200.821 494.786 200.78C494.326 199.4 493.906 198.01 493.536 196.61C493.526 196.59 493.526 196.57 493.516 196.55C493.326 195.86 493.146 195.17 492.986 194.47C492.826 193.86 492.686 193.25 492.556 192.63C492.406 191.94 492.256 191.25 492.126 190.55C492.056 190.19 491.986 189.83 491.926 189.47C491.866 189.17 491.816 188.86 491.766 188.56C491.716 188.26 491.666 187.95 491.616 187.64C491.516 187.03 491.426 186.42 491.346 185.81C491.246 185.09 491.166 184.37 491.086 183.64C490.996 182.77 490.916 181.9 490.846 181.02C490.796 180.43 490.766 179.83 490.736 179.23C490.706 178.68 490.676 178.13 490.666 177.58C490.656 177.551 490.656 177.519 490.666 177.49C490.665 177.489 490.664 177.487 490.663 177.486C490.662 177.484 490.662 177.482 490.662 177.48C490.662 177.478 490.662 177.476 490.663 177.475C490.664 177.473 490.665 177.471 490.666 177.47C490.656 177.46 490.656 177.46 490.666 177.45C490.665 177.449 490.664 177.447 490.663 177.446C490.662 177.444 490.662 177.442 490.662 177.44C490.662 177.438 490.662 177.436 490.663 177.435C490.664 177.433 490.665 177.431 490.666 177.43C490.656 177.21 490.646 176.99 490.646 176.77C490.626 176.12 490.616 175.47 490.616 174.82C490.616 174.23 490.626 173.65 490.636 173.06C490.656 172.24 490.686 171.42 490.726 170.6C490.726 170.42 490.746 170.25 490.756 170.07C490.766 169.89 490.776 169.72 490.786 169.54C490.806 169.16 490.836 168.78 490.876 168.4C490.875 168.33 490.878 168.26 490.886 168.19C490.916 167.76 490.956 167.33 490.996 166.9C491.076 166.04 491.176 165.17 491.286 164.31C491.346 163.88 491.396 163.45 491.466 163.02C491.506 162.72 491.556 162.41 491.606 162.1C491.646 161.79 491.696 161.48 491.756 161.17C491.826 160.76 491.896 160.34 491.976 159.92C492.016 159.67 492.066 159.42 492.116 159.17C492.306 158.17 492.516 157.17 492.746 156.17C492.976 155.16 493.236 154.16 493.516 153.16C493.786 152.15 494.086 151.14 494.406 150.13C494.556 149.62 494.716 149.12 494.896 148.62C495.226 147.61 495.576 146.61 495.966 145.62C496.146 145.13 496.336 144.63 496.546 144.14C496.946 143.15 497.366 142.16 497.796 141.19C498.016 140.7 498.236 140.21 498.476 139.72C498.926 138.75 499.396 137.78 499.906 136.83C500.396 135.86 500.926 134.91 501.466 133.97C502.006 133.03 502.566 132.09 503.156 131.16C503.426 130.7 503.726 130.23 504.036 129.78C504.636 128.86 505.266 127.94 505.906 127.04C507.197 125.22 508.586 123.43 510.056 121.69ZM490.866 168.4C490.836 168.78 490.806 169.16 490.786 169.54C490.806 169.16 490.836 168.78 490.876 168.4C490.875 168.33 490.878 168.26 490.886 168.19C490.876 168.26 490.876 168.33 490.866 168.4ZM492.106 159.17C492.066 159.42 492.016 159.67 491.976 159.92C492.016 159.67 492.066 159.42 492.116 159.17H492.106ZM517.016 235.32V235.33C517.016 235.34 517.026 235.34 517.036 235.34L517.016 235.32Z" fill="#3F3D56"/>
<path opacity="0.3" d="M519.898 237.879C504.08 224.531 493.861 205.723 491.269 185.19C488.677 164.656 493.902 143.898 505.906 127.039C504.33 128.626 502.806 130.289 501.334 132.027C494.352 140.302 489.068 149.872 485.783 160.189C482.499 170.506 481.279 181.37 482.193 192.159C483.107 202.948 486.137 213.451 491.11 223.069C496.084 232.686 502.902 241.231 511.178 248.213C527.89 262.315 549.52 269.201 571.309 267.355C593.098 265.509 613.262 255.083 627.364 238.37C628.832 236.63 630.215 234.848 631.512 233.024C616.912 247.693 597.329 256.336 576.652 257.235C555.975 258.135 535.716 251.225 519.898 237.879Z" fill="black"/>
</svg>
